<svg xmlns="http://www.w3.org/2000/svg" viewBox="0 0 352.29 371.96"><defs><style>.cls-1{fill:#7e5732;}.cls-2{fill:#8a6e4b;}</style></defs><g id="Layer_2" data-name="Layer 2"><g id="Layer_1-2" data-name="Layer 1"><path class="cls-1" d="M293.66,64.88a72.49,72.49,0,0,0-10.33,3.73,93.6,93.6,0,0,0-9.92,5.17c-3.25,1.92-6.41,4.1-9.58,6.25s-6.33,4.32-9.58,6.24a91.87,91.87,0,0,1-9.92,5.18,103.22,103.22,0,0,1-20.71,6.67c-7,1.56-13.78,2.88-19.91,4.92a86.46,86.46,0,0,0-8.78,3.33,40.73,40.73,0,0,0-7.6,4.59c-2.32,1.74-4.49,3.54-6.62,5.13a52.52,52.52,0,0,1-6.2,4c-4,2.2-7.58,4.07-10.54,5.48s-5.32,2.47-6.94,3.15-2.51,1-2.51,1l.3.73s.85-.41,2.48-1.07,4-1.6,7.14-2.67,6.92-2.29,11.33-3.58a50.74,50.74,0,0,1,7.25-1.53c2.62-.38,5.43-.64,8.3-1a41.29,41.29,0,0,0,8.62-2.13,86.72,86.72,0,0,0,8.56-3.86c5.79-2.89,11.53-6.78,17.56-10.6a104.08,104.08,0,0,1,19.35-9.92,92.7,92.7,0,0,1,10.68-3.36c3.66-.94,7.44-1.63,11.19-2.35S274.82,87,278.47,86a95.3,95.3,0,0,0,10.67-3.36A71.69,71.69,0,0,0,299.09,78c1.89-1.06,3.73-2.23,5.53-3.43v-12l-.31.06C300.76,63.21,297.18,63.9,293.66,64.88Z"/><path class="cls-1" d="M103.05,70.92a91.67,91.67,0,0,0,3.32,8.79,41.65,41.65,0,0,0,4.6,7.6c1.74,2.32,3.54,4.49,5.12,6.61a50.72,50.72,0,0,1,4,6.21c2.2,4,4.07,7.57,5.48,10.54s2.47,5.32,3.16,6.94,1,2.51,1,2.51l.72-.31s-.4-.84-1.06-2.47-1.61-4-2.68-7.14-2.28-6.92-3.58-11.33a53.64,53.64,0,0,1-1.53-7.25c-.37-2.62-.63-5.43-1-8.3a41.26,41.26,0,0,0-2.12-8.62,85.73,85.73,0,0,0-3.87-8.57c-2.88-5.78-6.77-11.52-10.59-17.55a112.94,112.94,0,0,1-7-12.43H93.84A111.39,111.39,0,0,1,98.13,51C99.69,58,101,64.79,103.05,70.92Z"/><path class="cls-1" d="M66.14,114.6a87,87,0,0,0,8.57,3.87,41.81,41.81,0,0,0,8.61,2.12c2.88.41,5.68.68,8.3,1a52.15,52.15,0,0,1,7.25,1.53c4.42,1.29,8.24,2.48,11.33,3.58s5.51,2,7.14,2.68,2.48,1.06,2.48,1.06l.3-.73s-.89-.31-2.5-1-4-1.71-6.94-3.15-6.51-3.28-10.55-5.48a52.66,52.66,0,0,1-6.2-4c-2.12-1.58-4.29-3.39-6.62-5.12a41.23,41.23,0,0,0-7.59-4.6A89.08,89.08,0,0,0,70.93,103C64.8,101,58,99.68,51,98.12a112,112,0,0,1-14.87-4.29V97a116.31,116.31,0,0,1,12.43,7C54.61,107.83,60.36,111.72,66.14,114.6Z"/><path class="cls-1" d="M70.93,171.58a85.55,85.55,0,0,0,8.78-3.32,40.77,40.77,0,0,0,7.6-4.6c2.32-1.74,4.49-3.54,6.61-5.12a53.57,53.57,0,0,1,6.21-4c4-2.2,7.58-4.06,10.55-5.48s5.31-2.47,6.93-3.15,2.51-1,2.51-1l-.3-.71s-.84.4-2.47,1.06-4,1.61-7.14,2.67-6.92,2.29-11.33,3.59A54,54,0,0,1,91.63,153c-2.62.37-5.43.63-8.3,1.05a41.26,41.26,0,0,0-8.62,2.12A86.87,86.87,0,0,0,66.14,160c-5.78,2.89-11.53,6.78-17.56,10.6a115.35,115.35,0,0,1-12.43,7v3.2A111.91,111.91,0,0,1,51,176.51C58,174.94,64.8,173.63,70.93,171.58Z"/><path class="cls-1" d="M82.65,289.14A93.94,93.94,0,0,0,86,278.47c.94-3.66,1.63-7.43,2.35-11.19s1.42-7.54,2.36-11.19a90.73,90.73,0,0,1,3.36-10.67A103,103,0,0,1,104,226.06c3.82-6,7.71-11.78,10.6-17.56a87.93,87.93,0,0,0,3.86-8.57,41.29,41.29,0,0,0,2.13-8.62c.41-2.87.67-5.68,1.05-8.31a53.13,53.13,0,0,1,1.52-7.25c1.3-4.4,2.49-8.23,3.58-11.32s2-5.51,2.68-7.14,1.07-2.47,1.07-2.47l-.73-.31s-.31.89-1,2.51-1.71,4-3.15,6.94-3.28,6.5-5.48,10.54a53.57,53.57,0,0,1-4,6.21c-1.58,2.12-3.38,4.29-5.13,6.61a42.18,42.18,0,0,0-4.59,7.6,87.94,87.94,0,0,0-3.32,8.78c-2,6.14-3.36,13-4.93,19.92a104.24,104.24,0,0,1-6.66,20.71,92.81,92.81,0,0,1-5.18,9.92c-1.92,3.24-4.1,6.4-6.25,9.57s-4.32,6.33-6.24,9.58a92.86,92.86,0,0,0-5.17,9.93,73.33,73.33,0,0,0-3.74,10.33c-1,3.51-1.66,7.09-2.29,10.64,0,.11,0,.21-.05.32h12c1.21-1.8,2.37-3.64,3.44-5.53A72.81,72.81,0,0,0,82.65,289.14Z"/><path class="cls-1" d="M209.75,293.66A72.05,72.05,0,0,0,206,283.33a93.56,93.56,0,0,0-5.15-9.93c-1.91-3.26-4.08-6.42-6.21-9.6s-4.3-6.34-6.21-9.59a95.58,95.58,0,0,1-5.17-9.92,106.93,106.93,0,0,1-6.69-20.7c-1.58-7-2.92-13.77-5-19.89a88,88,0,0,0-3.35-8.78,40.73,40.73,0,0,0-4.63-7.58c-1.75-2.32-3.56-4.49-5.15-6.6a50.13,50.13,0,0,1-4-6.22c-2.18-4-4-7.59-5.45-10.55s-2.46-5.33-3.14-6.95-1-2.5-1-2.5l-.71.29s.4.85,1.06,2.48,1.61,4,2.7,7.13,2.3,6.91,3.62,11.31a51,51,0,0,1,1.53,7.25c.37,2.62.63,5.44,1,8.31a41.35,41.35,0,0,0,2.09,8.64A87.67,87.67,0,0,0,160,208.5c2.87,5.79,6.74,11.55,10.53,17.59a106,106,0,0,1,9.91,19.36,96,96,0,0,1,3.37,10.67c.95,3.66,1.64,7.43,2.38,11.18s1.44,7.52,2.39,11.17A96.06,96.06,0,0,0,192,289.14a72.14,72.14,0,0,0,4.66,9.94c1.08,1.9,2.24,3.74,3.44,5.54h12l-.06-.32C211.43,300.75,210.73,297.17,209.75,293.66Z"/><path class="cls-1" d="M299.09,196.65a70.51,70.51,0,0,0-9.95-4.66,93.94,93.94,0,0,0-10.67-3.37c-3.65-.94-7.43-1.63-11.19-2.35s-7.53-1.42-11.19-2.36a94.67,94.67,0,0,1-10.68-3.35,103.81,103.81,0,0,1-19.35-9.93c-6-3.82-11.78-7.71-17.56-10.59a85.58,85.58,0,0,0-8.56-3.87,41.42,41.42,0,0,0-8.62-2.12c-2.88-.41-5.69-.68-8.31-1.05a52.78,52.78,0,0,1-7.25-1.53c-4.41-1.3-8.23-2.48-11.33-3.59s-5.5-2-7.13-2.67-2.48-1.06-2.48-1.06l-.3.71s.89.31,2.51,1,4,1.71,6.94,3.15,6.51,3.28,10.55,5.48a52.52,52.52,0,0,1,6.2,4c2.12,1.59,4.29,3.39,6.61,5.13a41.65,41.65,0,0,0,7.6,4.6,88.88,88.88,0,0,0,8.78,3.32c6.13,2,12.95,3.36,19.91,4.92a104.3,104.3,0,0,1,20.71,6.67,93.6,93.6,0,0,1,9.92,5.17c3.25,1.93,6.41,4.11,9.58,6.25s6.33,4.33,9.58,6.25a91.78,91.78,0,0,0,9.92,5.17,73,73,0,0,0,10.33,3.74c3.52,1,7.1,1.67,10.65,2.29l.31.05v-12C302.82,198.88,301,197.72,299.09,196.65Z"/><path class="cls-1" d="M160,66.13a88.06,88.06,0,0,0-3.87,8.57,41.26,41.26,0,0,0-2.12,8.62c-.41,2.87-.68,5.68-1.05,8.3a52.15,52.15,0,0,1-1.53,7.25c-1.3,4.41-2.48,8.23-3.58,11.33s-2,5.51-2.68,7.14-1.06,2.47-1.06,2.47l.72.31s.31-.89,1-2.51,1.71-4,3.15-6.94,3.28-6.5,5.48-10.54a53.05,53.05,0,0,1,4-6.21c1.59-2.12,3.39-4.29,5.13-6.61a41.65,41.65,0,0,0,4.6-7.6,89.08,89.08,0,0,0,3.32-8.79c2-6.13,3.36-12.94,4.93-19.91a111.34,111.34,0,0,1,4.28-14.86h-3.21a114.6,114.6,0,0,1-7,12.43C166.81,54.61,162.92,60.35,160,66.13Z"/><path class="cls-1" d="M137.32,130.13a7.19,7.19,0,1,0,7.18,7.19A7.18,7.18,0,0,0,137.32,130.13Z"/><path class="cls-2" d="M137.23,49.92h.18a45.81,45.81,0,0,0,3.3-7.37c.66-1.83,1.34-4,2-6.4H132c.63,2.41,1.32,4.57,2,6.4A45.81,45.81,0,0,0,137.23,49.92Z"/><path class="cls-2" d="M137.32,118.75c.77,0,6-14,6-31.34s-5-31.33-6-31.33-6,14-6,31.33S136.56,118.75,137.32,118.75Z"/><path class="cls-2" d="M79.88,79.87c-.7.71,5.68,14.15,17.92,26.39s25.85,18.47,26.39,17.92S118.51,110,106.27,97.8,80.58,79.17,79.88,79.87Z"/><path class="cls-2" d="M87.42,131.33c-17.31,0-31.33,5-31.33,6s14,6,31.33,6,31.34-5.23,31.34-6S104.72,131.33,87.42,131.33Z"/><path class="cls-2" d="M49.89,137.32c0-.14-.48-.42-1.29-.78a53.47,53.47,0,0,0-6-2.58c-1.84-.66-4-1.35-6.41-2v10.68c2.41-.64,4.57-1.32,6.41-2a52.11,52.11,0,0,0,6-2.58C49.41,137.73,49.89,137.45,49.89,137.32Z"/><path class="cls-2" d="M97.8,168.37c-12.24,12.23-18.62,25.69-17.92,26.39s14.15-5.68,26.39-17.92,18.46-25.86,17.92-26.39S110,156.13,97.8,168.37Z"/><path class="cls-2" d="M74.34,200.31c-.1-.1-.47,0-1,.14h0a51.91,51.91,0,0,0-6.33,2.5,73,73,0,0,0-7.69,4.17,93.45,93.45,0,0,0-9,6.37c-1.57,1.25-3.15,2.61-4.74,4.05a42.13,42.13,0,0,0-4.61,4.8,44.44,44.44,0,0,0-4,5.88l-.73,1.29v14.09c1.18-.74,2.39-1.45,3.62-2.12,2.26-1.25,4.51-2.46,6.66-3.71a46.11,46.11,0,0,0,5.88-4,42.09,42.09,0,0,0,4.79-4.62c1.45-1.59,2.8-3.16,4-4.73a90.8,90.8,0,0,0,6.38-9,71.06,71.06,0,0,0,4.17-7.68A54.2,54.2,0,0,0,74,202C74.35,201,74.47,200.44,74.34,200.31Z"/><path class="cls-2" d="M49.18,51.71a16.9,16.9,0,0,1,4.25,6.51c1,2.48,1.9,5,3.3,6.76A14.45,14.45,0,0,0,59,67.38c.8.7,1.61,1.35,2.42,1.94a32.78,32.78,0,0,0,4.76,2.86,28.63,28.63,0,0,0,4.2,1.68,28.11,28.11,0,0,0,3.05.73c.75.12,1.18.15,1.18.15l.14-.13s0-.43-.16-1.19a26.39,26.39,0,0,0-.73-3,28,28,0,0,0-1.68-4.2,31,31,0,0,0-2.86-4.75c-.59-.81-1.24-1.62-1.94-2.43A14.33,14.33,0,0,0,65,56.73c-1.8-1.4-4.29-2.3-6.76-3.31a17,17,0,0,1-6.52-4.25,23.22,23.22,0,0,1-4.26-6.85,49.22,49.22,0,0,0-3.06-6.17H36.15v8.23a47.39,47.39,0,0,0,6.18,3.06A23,23,0,0,1,49.18,51.71Z"/><path class="cls-2" d="M334.15,325.59c12.36,12.36,18.65,26.11,18.1,26.66s-14.29-5.75-26.66-18.1-18.78-25.95-18.07-26.66S321.79,313.23,334.15,325.59Z"/><path class="cls-2" d="M33.31,33.31s-.24,0-.67-.07-1.07-.13-1.82-.3a33,33,0,0,1-5.76-1.78,40.12,40.12,0,0,1-7-3.7,44,44,0,0,1-6.72-5.52,44,44,0,0,1-5.53-6.7,40.91,40.91,0,0,1-2.1-3.53c-.62-1.17-1.14-2.34-1.6-3.44A33.61,33.61,0,0,1,.37,2.49C.2,1.75.14,1.09.07.68S0,0,0,0,.25,0,.68.07,1.75.2,2.49.37A33.61,33.61,0,0,1,8.27,2.14a37.24,37.24,0,0,1,3.44,1.6,39.45,39.45,0,0,1,3.53,2.1,44,44,0,0,1,6.7,5.53,44.57,44.57,0,0,1,5.52,6.72,40.12,40.12,0,0,1,3.7,7,34,34,0,0,1,1.78,5.77c.17.74.22,1.39.3,1.81S33.31,33.31,33.31,33.31Z"/><path class="cls-2" d="M145.77,286.17a173.52,173.52,0,0,0-3.47-20.48,105.68,105.68,0,0,1-2.53-20.48,68.43,68.43,0,0,1,.46-10c.41-3.31,1-6.58,1.75-9.8s1.45-6.38,2.09-9.48a76.4,76.4,0,0,0,1.29-9.07,70.85,70.85,0,0,0,.12-8.59c-.1-2.78-.25-5.46-.48-8-.43-5.15-1.11-9.86-1.86-14s-1.64-7.82-2.48-10.83l0,0c-1.41-5.79-2.94-9.39-3.32-9.39s-2,3.72-3.4,9.66c-.83,3-1.69,6.53-2.42,10.61s-1.43,8.9-1.86,14c-.23,2.57-.38,5.25-.48,8a68.87,68.87,0,0,0,.12,8.59,74.4,74.4,0,0,0,1.29,9.07c.64,3.1,1.38,6.26,2.09,9.48s1.34,6.49,1.75,9.8a68.43,68.43,0,0,1,.46,10,104.18,104.18,0,0,1-2.54,20.48,177.74,177.74,0,0,0-3.47,20.48c-.56,6.28-1.12,12.45-1.54,18.45h20C146.9,298.62,146.33,292.45,145.77,286.17Z"/><path class="cls-2" d="M229.13,36.15c-1.54,2.26-3.06,4.56-4.56,6.87a104.48,104.48,0,0,1-12.7,16.28,69.54,69.54,0,0,1-7.41,6.77,98.66,98.66,0,0,1-8.17,5.69c-2.78,1.77-5.53,3.49-8.17,5.23a72.72,72.72,0,0,0-7.34,5.5,68.73,68.73,0,0,0-6.16,6c-1.89,2-3.68,4-5.34,6-3.33,4-6.19,7.77-8.61,11.25s-4.21,6.42-5.7,9.07c-3.25,5.29-4.81,9.1-4.52,9.37s4-1.22,9.14-4.37c2.7-1.52,5.86-3.44,9.3-5.84s7.31-5.28,11.25-8.61c2-1.67,4-3.45,6-5.34a71.74,71.74,0,0,0,6-6.17,72.94,72.94,0,0,0,5.5-7.33c1.74-2.64,3.46-5.39,5.22-8.18s3.64-5.53,5.7-8.16a68.68,68.68,0,0,1,6.77-7.42,105,105,0,0,1,16.28-12.69,174.23,174.23,0,0,0,16.93-12l2.27-1.89Z"/><path class="cls-2" d="M286.17,128.86a175.6,175.6,0,0,0-20.48,3.47,104.91,104.91,0,0,1-20.48,2.53,67.14,67.14,0,0,1-10-.45c-3.31-.41-6.58-1-9.8-1.75s-6.38-1.45-9.48-2.09a76.47,76.47,0,0,0-9.07-1.3,70.8,70.8,0,0,0-8.59-.11c-2.77.1-5.46.25-8,.47-5.15.44-9.86,1.12-14,1.86s-7.67,1.61-10.64,2.44c-5.92,1.43-9.63,3-9.63,3.39s3.68,1.94,9.58,3.37c3,.84,6.57,1.71,10.69,2.45s8.9,1.42,14,1.86c2.57.22,5.26.37,8,.48a73,73,0,0,0,8.59-.12,74.46,74.46,0,0,0,9.07-1.3c3.1-.64,6.27-1.37,9.48-2.09a97,97,0,0,1,9.8-1.74,68.5,68.5,0,0,1,10-.47,105.71,105.71,0,0,1,20.48,2.54,173.52,173.52,0,0,0,20.48,3.47c6.28.56,12.45,1.13,18.45,1.55v-20C298.62,127.74,292.45,128.3,286.17,128.86Z"/><path class="cls-2" d="M301.38,297.23c-.51-1-1.09-2-1.77-3.18a187,187,0,0,0-14-20.65c-3.14-4-6.63-8.31-10.52-12.63a146.73,146.73,0,0,0-13-12.8c-4.78-4.19-9.85-8.39-15-12.68a173.16,173.16,0,0,0-16.68-11.84,105.09,105.09,0,0,1-15.34-11.87,68.13,68.13,0,0,1-6.49-7.13,97.9,97.9,0,0,1-5.7-8.16c-1.76-2.79-3.48-5.55-5.22-8.18a72.72,72.72,0,0,0-5.5-7.34,71.55,71.55,0,0,0-6-6.16c-2-1.88-4-3.68-6-5.33-3.94-3.34-7.76-6.19-11.25-8.62s-6.62-4.33-9.32-5.85c-4.93-3-8.47-4.48-9-4.37l-.06,0,0,0,0,0c-.2.43,1.4,4.28,4.69,9.6,1.47,2.58,3.29,5.55,5.54,8.78,2.42,3.48,5.28,7.3,8.61,11.25,1.66,2,3.45,4,5.33,6a73.22,73.22,0,0,0,6.17,6,75.69,75.69,0,0,0,7.33,5.5c2.64,1.74,5.4,3.45,8.18,5.22s5.53,3.64,8.16,5.69a70.31,70.31,0,0,1,7.13,6.49,105.34,105.34,0,0,1,11.87,15.35,173.24,173.24,0,0,0,11.85,16.68c4.28,5.12,8.48,10.18,12.67,15a149.53,149.53,0,0,0,12.8,13c4.33,3.89,8.59,7.38,12.63,10.52a187,187,0,0,0,20.65,14c1.23.71,2.31,1.31,3.3,1.83,4.09,2.36,6.91,3.45,7.22,3.13S303.79,301.38,301.38,297.23Z"/><path class="cls-1" d="M63.57,335.49a15.91,15.91,0,0,0-6.23,1.21,14.34,14.34,0,0,0-4.93,3.44,15.83,15.83,0,0,0-3.23,5.4A20.63,20.63,0,0,0,48,352.65a18.9,18.9,0,0,0,1.27,7.12,16.25,16.25,0,0,0,3.43,5.4,15,15,0,0,0,5.13,3.44,16.68,16.68,0,0,0,6.34,1.21,13.83,13.83,0,0,0,4.46-.68,11.6,11.6,0,0,0,3.54-1.9V354.1H65.13v-2.22H78.48v16.46a34.12,34.12,0,0,1-3.31,1.56A28.37,28.37,0,0,1,71.59,371a32.32,32.32,0,0,1-4.24.7c-1.55.15-3.3.22-5.25.22a24.64,24.64,0,0,1-5.9-.69,22.42,22.42,0,0,1-5.18-2,20.29,20.29,0,0,1-4.3-3,18.93,18.93,0,0,1-3.26-3.92,18.23,18.23,0,0,1-2.07-4.61,18,18,0,0,1-.73-5.09,19.24,19.24,0,0,1,.7-5.13,19.87,19.87,0,0,1,2-4.69,19.41,19.41,0,0,1,3.16-4.05,20.32,20.32,0,0,1,4.2-3.17,21.62,21.62,0,0,1,5.09-2.06,22.21,22.21,0,0,1,5.87-.74,18.16,18.16,0,0,1,5.49.8,19.71,19.71,0,0,1,4.59,2.14,18.37,18.37,0,0,1,3.69,3.07,23.61,23.61,0,0,1,2.77,3.63l-2.71,1.83a18.76,18.76,0,0,0-5.27-6.66A10.94,10.94,0,0,0,63.57,335.49Z"/><path class="cls-1" d="M115.8,333.67h6.29v35h18.82v2.42H115.8Z"/><path class="cls-1" d="M193.76,372a21.35,21.35,0,0,1-10.5-2.71,20.66,20.66,0,0,1-4.16-3.1,19.2,19.2,0,0,1-3.19-4,19.48,19.48,0,0,1-2-4.72,18.74,18.74,0,0,1-.73-5.27,18,18,0,0,1,.73-5.15,18.78,18.78,0,0,1,2-4.62,18.59,18.59,0,0,1,3.19-3.91,20.76,20.76,0,0,1,9.11-5,23,23,0,0,1,11.11,0,20.76,20.76,0,0,1,9.11,5,18.59,18.59,0,0,1,3.19,3.91,18.78,18.78,0,0,1,2,4.62,18,18,0,0,1,.73,5.15,18.75,18.75,0,0,1-.73,5.25,19.52,19.52,0,0,1-5.23,8.76,20.66,20.66,0,0,1-4.16,3.1A21.35,21.35,0,0,1,193.76,372Zm0-1.88a11.62,11.62,0,0,0,5.67-1.34,12,12,0,0,0,4.15-3.73,17.71,17.71,0,0,0,2.55-5.68,28.11,28.11,0,0,0,.87-7.19,26.9,26.9,0,0,0-.87-7.05,17,17,0,0,0-2.55-5.53,11.77,11.77,0,0,0-4.15-3.61,12.06,12.06,0,0,0-5.67-1.29A12.35,12.35,0,0,0,188,336a11.66,11.66,0,0,0-4.14,3.61,16.93,16.93,0,0,0-2.52,5.53,27.81,27.81,0,0,0-.84,7.05,29.06,29.06,0,0,0,.84,7.19,17.67,17.67,0,0,0,2.52,5.68,11.5,11.5,0,0,0,9.9,5.07Z"/><path class="cls-1" d="M250.24,333.67l11.15,28.44,9.83-25.68,10.15,25.78,10.87-28.54h3.09L280.94,371.4H279l-9.21-23.34-8.89,23.34h-2.15l-14.85-37.73Z"/></g></g></svg>